#!OML:ASF E:\Style3\Style3.ASF
:FULLY-SPECIFIED
:DEGREES
2003
root -0.685184 17.9595 0.587137 14.4459 84.4604 351.007
lowerback -4.72894 -0.766504 -3.17372
upperback -9.42204 -0.673798 -0.168695
thorax -7.16356 0.0369947 1.58587
lowerneck -18.8369 -2.20514 -5.1409
upperneck 21.2292 -4.16808 11.4094
head 10.2681 -0.903241 4.35678
rclavicle -1.09332e-015 1.98785e-014
rhumerus 74.1263 -49.1251 -127.623
rradius 6.20082
rwrist -20.811
rhand -17.4895 22.1242
rfingers 7.12502
rthumb 8.76302 -7.67392
lclavicle -1.09332e-015 1.98785e-014
lhumerus 145.612 17.5896 210.559
lradius 10.4711
lwrist -35.746
lhand 1.14664 16.1969
lfingers 7.12502
lthumb 26.6882 44.3352
rfemur -28.902 15.3756 13.336
rtibia 14.3718
rfoot -8.70542 -20.8658
rtoes -14.9459
lfemur -17.5111 0.42095 -15.9127
ltibia -4.69132e-014
lfoot -7.33358 10.3332
ltoes 5.44016
2004
root -0.687681 17.9599 0.588086 14.8521 84.4735 351.414
lowerback -4.75986 -0.741099 -3.16619
upperback -9.44511 -0.638952 -0.218704
thorax -7.17336 0.0533202 1.52834
lowerneck -18.8221 -2.20788 -5.09617
upperneck 21.2697 -4.19074 11.424
head 10.2818 -0.906625 4.35266
rclavicle -1.17904e-014 -3.57812e-015
rhumerus 74.6903 -49.2692 -128.482
rradius 6.4857
rwrist -20.2915
rhand -16.9184 21.6884
rfingers 7.12502
rthumb 9.3141 -8.08587
lclavicle -1.17904e-014 -3.57812e-015
lhumerus 145.41 17.5835 210.527
lradius 10.3971
lwrist -35.8801
lhand 0.981326 15.9768
lfingers 7.12502
lthumb 26.53 44.1391
rfemur -28.9334 15.3551 13.2918
rtibia 14.4125
rfoot -8.68748 -20.858
rtoes -14.7202
lfemur -17.5196 0.400619 -15.9417
ltibia 3.97569e-015
lfoot -7.39462 10.3167
ltoes 6.18354
2005
root -0.690789 17.9596 0.589978 15.2334 84.5017 351.814
lowerback -4.75482 -0.728116 -3.18329
upperback -9.48081 -0.621079 -0.248134
thorax -7.21651 0.0645539 1.5066
lowerneck -18.7914 -2.22393 -5.0636
upperneck 21.3247 -4.21982 11.3944
head 10.2972 -0.919538 4.33384
rclavicle 8.15017e-015 6.36111e-015
rhumerus 75.2502 -49.4005 -129.301
rradius 6.68028
rwrist -19.7625
rhand -16.4224 21.3385
rfingers 7.12502
rthumb 9.79265 -8.41377
lclavicle 8.15017e-015 6.36111e-015
lhumerus 145.086 18.4425 210.001
lradius 10.3473
lwrist -35.0792
lhand 0.843647 16.0034
lfingers 7.12502
lthumb 26.3982 44.1855
rfemur -28.9382 15.3431 13.2607
rtibia 14.4526
rfoot -8.68012 -20.8939
rtoes -14.7967
lfemur -17.5197 0.362684 -15.9697
ltibia -7.95139e-015
lfoot -7.39934 10.3219
ltoes 6.26536
2006
root -0.692375 17.9595 0.592051 14.9631 84.5463 351.576
lowerback -4.74932 -0.730142 -3.13962
upperback -9.50599 -0.622893 -0.250119
thorax -7.24724 0.0620106 1.4801
lowerneck -18.7846 -2.22638 -5.02182
upperneck 21.3828 -4.22985 11.3536
head 10.3158 -0.92374 4.31227
rclavicle -1.58034e-014 8.34896e-015
rhumerus 75.8359 -49.4362 -130.157
rradius 6.75511
rwrist -19.1631
rhand -16.1991 21.2865
rfingers 7.12502
rthumb 10.008 -8.45559
lclavicle -1.58034e-014 8.34896e-015
lhumerus 144.833 19.0223 209.623
lradius 10.3344
lwrist -34.5649
lhand 0.864205 16.0601
lfingers 7.12502
lthumb 26.4179 44.2393
rfemur -28.9359 15.3915 13.2778
rtibia 14.509
rfoot -8.73821 -20.9443
rtoes -14.8971
lfemur -17.4951 0.32525 -15.9306
ltibia -3.18055e-014
lfoot -7.45942 10.3173
ltoes 6.38332
2007
root -0.69411 17.96 0.594018 14.6183 84.5924 351.233
lowerback -4.79129 -0.733048 -3.1061
upperback -9.50101 -0.623563 -0.226905
thorax -7.21749 0.0598699 1.48548
lowerneck -18.8965 -2.23193 -5.06674
upperneck 21.494 -4.23713 11.3803
head 10.3796 -0.921575 4.33364
rclavicle 6.42323e-015 -4.77083e-015
rhumerus 76.5797 -49.368 -131.069
rradius 6.68755
rwrist -18.4651
rhand -16.0228 21.2541
rfingers 7.12502
rthumb 10.1782 -8.47971
lclavicle 6.42323e-015 -4.77083e-015
lhumerus 144.807 18.4151 209.971
lradius 10.2901
lwrist -35.3613
lhand 1.00057 15.8845
lfingers 7.12502
lthumb 26.5484 44.044
rfemur -28.9573 15.4562 13.292
rtibia 14.5593
rfoot -8.80335 -21.0054
rtoes -14.7553
lfemur -17.4974 0.29462 -15.872
ltibia -5.64548e-014
lfoot -7.49923 10.2929
ltoes 6.65007
2008
root -0.69576 17.9599 0.594857 15.0163 84.6094 351.678
lowerback -4.82228 -0.716697 -3.12444
upperback -9.48027 -0.60146 -0.244962
thorax -7.17822 0.0703257 1.4763
lowerneck -18.9747 -2.2609 -5.1205
upperneck 21.592 -4.27896 11.4273
head 10.4366 -0.934549 4.35842
rclavicle -9.0447e-015 1.43125e-014
rhumerus 77.2527 -49.3437 -131.975
rradius 6.76096
rwrist -17.7451
rhand -15.8056 21.0393
rfingers 7.12502
rthumb 10.3877 -8.68413
lclavicle -9.0447e-015 1.43125e-014
lhumerus 144.687 18.1103 210.133
lradius 10.2768
lwrist -35.7972
lhand 1.08373 15.8511
lfingers 7.12502
lthumb 26.628 43.9986
rfemur -28.9218 15.3223 13.3142
rtibia 14.589
rfoot -8.73391 -20.9316
rtoes -15.0461
lfemur -17.4522 0.264378 -15.9078
ltibia -1.43125e-014
lfoot -7.49745 10.2981
ltoes 6.89547
2009
root -0.698433 17.9592 0.595395 15.4762 84.6693 352.186
lowerback -4.81887 -0.7261 -3.12347
upperback -9.49116 -0.614703 -0.270654
thorax -7.19167 0.0633736 1.44895
lowerneck -18.9689 -2.25344 -5.13983
upperneck 21.6689 -4.2786 11.4739
head 10.4651 -0.927748 4.38206
rclavicle -5.75233e-015 -1.07344e-014
rhumerus 77.7928 -49.3552 -132.829
rradius 6.86146
rwrist -16.8887
rhand -15.7441 21.0439
rfingers 7.12502
rthumb 10.447 -8.67657
lclavicle -5.75233e-015 -1.07344e-014
lhumerus 144.469 18.5706 209.821
lradius 10.2672
lwrist -35.4352
lhand 1.03819 15.898
lfingers 7.12502
lthumb 26.5844 44.052
rfemur -28.8707 15.2309 13.3153
rtibia 14.6039
rfoot -8.66729 -20.9377
rtoes -15.3809
lfemur -17.4294 0.190152 -15.9393
ltibia 1.82882e-014
lfoot -7.4805 10.3026
ltoes 6.89902
2010
root -0.698991 17.9584 0.596024 15.2991 84.7424 352.022
lowerback -4.86776 -0.727701 -3.05559
upperback -9.51455 -0.612839 -0.267628
thorax -7.18939 0.0609488 1.41375
lowerneck -18.9374 -2.26134 -5.18761
upperneck 21.712 -4.28201 11.4874
head 10.4761 -0.93118 4.3963
rclavicle 8.41108e-015 3.97569e-016
rhumerus 78.3642 -49.3797 -133.644
rradius 6.86823
rwrist -16.0052
rhand -15.8413 21.0729
rfingers 7.12502
rthumb 10.3533 -8.65219
lclavicle 8.41108e-015 3.97569e-016
lhumerus 144.177 19.4644 209.297
lradius 10.256
lwrist -34.5618
lhand 0.810306 15.999
lfingers 7.12502
lthumb 26.3663 44.1859
rfemur -28.8361 15.1785 13.3635
rtibia 14.6132
rfoot -8.64211 -20.9601
rtoes -15.4188
lfemur -17.4243 0.123893 -15.9023
ltibia -5.32743e-014
lfoot -7.412 10.3074
ltoes 6.58702
2011
root -0.700369 17.9582 0.599026 14.5046 84.8196 351.252
lowerback -4.89055 -0.737437 -2.99032
upperback -9.52189 -0.622226 -0.223242
thorax -7.18363 0.0538194 1.42382
lowerneck -18.9408 -2.28382 -5.26928
upperneck 21.7481 -4.29519 11.4996
head 10.493 -0.941865 4.41442
rclavicle 1.00262e-014 -3.97569e-016
rhumerus 78.9245 -49.383 -134.433
rradius 6.90492
rwrist -15.285
rhand -15.6251 20.7873
rfingers 7.12502
rthumb 10.5618 -8.92732
lclavicle 1.00262e-014 -3.97569e-016
lhumerus 143.964 20.0779 208.926
lradius 10.2468
lwrist -33.9072
lhand 0.63742 16.068
lfingers 7.12502
lthumb 26.2008 44.2797
rfemur -28.7917 15.2578 13.4257
rtibia 14.5961
rfoot -8.74807 -21.0722
rtoes -14.9817
lfemur -17.4098 0.072677 -15.7953
ltibia 7.95139e-016
lfoot -7.38328 10.3002
ltoes 6.56332
2012
root -0.702787 17.9576 0.6021 14.0428 84.8968 350.79
lowerback -4.90903 -0.739697 -2.96061
upperback -9.5351 -0.622889 -0.213072
thorax -7.18742 0.052647 1.41771
lowerneck -18.9869 -2.29979 -5.20796
upperneck 21.8112 -4.3163 11.4013
head 10.5228 -0.955295 4.36691
rclavicle 3.40419e-015 -1.98785e-015
rhumerus 79.595 -49.3987 -135.318
rradius 6.96644
rwrist -14.7774
rhand -15.1067 20.2702
rfingers 7.12502
rthumb 11.0618 -9.41834
lclavicle 3.40419e-015 -1.98785e-015
lhumerus 143.878 19.8807 209.041
lradius 10.211
lwrist -34.2175
lhand 0.584571 15.9049
lfingers 7.12502
lthumb 26.1502 44.124
rfemur -28.7818 15.3974 13.4237
rtibia 14.5602
rfoot -8.78045 -21.259
rtoes -14.8431
lfemur -17.4421 0.0116626 -15.7255
ltibia -3.4191e-014
lfoot -7.37231 10.3289
ltoes 6.36085
2013
root -0.704348 17.9576 0.603344 13.8288 84.9647 350.578
lowerback -4.93981 -0.742754 -2.92987
upperback -9.5583 -0.624457 -0.222508
thorax -7.19527 0.0507013 1.39033
lowerneck -18.9207 -2.28988 -5.13901
upperneck 21.7717 -4.31112 11.362
head 10.4928 -0.954272 4.33928
rclavicle -8.29926e-015 1.82882e-014
rhumerus 80.2336 -49.4118 -136.209
rradius 7.07358
rwrist -14.3517
rhand -14.8734 20.0345
rfingers 7.12502
rthumb 11.2868 -9.64181
lclavicle -8.29926e-015 1.82882e-014
lhumerus 143.932 19.1444 209.493
lradius 10.1706
lwrist -35.159
lhand 0.681999 15.8896
lfingers 7.12502
lthumb 26.2434 44.0948
rfemur -28.7745 15.4089 13.4405
rtibia 14.5474
rfoot -8.75135 -21.3137
rtoes -15.0367
lfemur -17.4674 -0.051054 -15.6937
ltibia -1.82882e-014
lfoot -7.31743 10.3617
ltoes 5.69592
2014
root -0.703532 17.9577 0.60435 13.8425 84.976 350.628
lowerback -5.00156 -0.728786 -2.93154
upperback -9.56461 -0.602452 -0.234255
thorax -7.16792 0.0616859 1.37817
lowerneck -18.8361 -2.28577 -5.10889
upperneck 21.7181 -4.31572 11.3815
head 10.4576 -0.954622 4.33816
rclavicle 6.08778e-016 1.35174e-014
rhumerus 80.7754 -49.5016 -137.025
rradius 7.25744
rwrist -13.9056
rhand -14.8646 20.0435
rfingers 7.12502
rthumb 11.2953 -9.6324
lclavicle 6.08778e-016 1.35174e-014
lhumerus 143.98 18.4155 209.963
lradius 10.1448
lwrist -36.1298
lhand 0.709197 16.038
lfingers 7.12502
lthumb 26.2695 44.2394
rfemur -28.7401 15.4682 13.4179
rtibia 14.553
rfoot -8.83115 -21.339
rtoes -14.685
lfemur -17.4231 -0.0665281 -15.6976
ltibia -3.18055e-015
lfoot -7.32077 10.3783
ltoes 5.62914
2015
root -0.703755 17.9579 0.605373 14.0989 85.006 350.888
lowerback -5.09361 -0.7342 -2.9656
upperback -9.58074 -0.603267 -0.225941
thorax -7.13268 0.0648698 1.40518
lowerneck -18.806 -2.2703 -5.05515
upperneck 21.7097 -4.29745 11.3317
head 10.4445 -0.948566 4.31265
rclavicle -7.52897e-015 -2.38542e-015
rhumerus 81.2693 -49.5945 -137.775
rradius 7.40528
rwrist -13.3855
rhand -14.8178 19.9696
rfingers 7.12502
rthumb 11.3405 -9.70379
lclavicle -7.52897e-015 -2.38542e-015
lhumerus 143.913 18.3499 210.064
lradius 10.1634
lwrist -36.3556
lhand 0.800707 16.0036
lfingers 7.12502
lthumb 26.3571 44.1919
rfemur -28.7383 15.4497 13.3999
rtibia 14.5678
rfoot -8.88066 -21.3672
rtoes -14.6533
lfemur -17.4241 -0.0988632 -15.7062
ltibia -1.35174e-014
lfoot -7.36295 10.3692
ltoes 6.13143
2016
root -0.705874 17.9593 0.606788 14.1801 85.062 350.937
lowerback -5.16226 -0.754629 -2.98462
upperback -9.60959 -0.624589 -0.211093
thorax -7.12379 0.0577693 1.43097
lowerneck -18.8837 -2.26165 -4.96022
upperneck 21.8018 -4.29899 11.2495
head 10.4888 -0.946273 4.26953
rclavicle -2.5842e-015 7.15625e-015
rhumerus 81.8785 -49.5591 -138.613
rradius 7.41507
rwrist -12.8873
rhand -14.7578 19.8927
rfingers 7.12502
rthumb 11.3983 -9.77751
lclavicle -2.5842e-015 7.15625e-015
lhumerus 143.799 18.5739 209.948
lradius 10.1655
lwrist -36.1179
lhand 0.836594 16.0159
lfingers 7.12502
lthumb 26.3914 44.1991
rfemur -28.7901 15.4764 13.3708
rtibia 14.5932
rfoot -8.90327 -21.4488
rtoes -14.6636
lfemur -17.4833 -0.151474 -15.6954
ltibia -5.00937e-014
lfoot -7.3007 10.393
ltoes 5.71015
2017
root -0.708966 17.9602 0.607552 14.0915 85.0943 350.865
lowerback -5.1474 -0.764071 -2.97963
upperback -9.62312 -0.636244 -0.188967
thorax -7.14636 0.0533073 1.45157
lowerneck -19.0013 -2.26067 -4.95894
upperneck 21.9038 -4.29944 11.2312
head 10.548 -0.942744 4.26698
rclavicle -2.65874e-015 -2.14687e-014
rhumerus 82.572 -49.425 -139.482
rradius 7.29349
rwrist -12.3808
rhand -14.8981 19.9839
rfingers 7.12502
rthumb 11.2631 -9.69371
lclavicle -2.65874e-015 -2.14687e-014
lhumerus 143.472 19.8272 209.121
lradius 10.1526
lwrist -34.6194
lhand 0.777828 16.3366
lfingers 7.12502
lthumb 26.3352 44.5282
rfemur -28.7914 15.4326 13.3908
rtibia 14.6336
rfoot -8.98973 -21.3539
rtoes -14.2124
lfemur -17.4839 -0.181734 -15.6791
ltibia 3.33958e-014
lfoot -7.27733 10.4043
ltoes 5.63464
